Coordinates
version=1
nRows=5
nColumns=42
inDegrees=yes

Units are S.I. units (second, meters, Newtons, ...)
If the header above contains a line with 'inDegrees', this indicates whether rotational values are in degrees (yes) or radians (no).

endheader
time	pelvis_tilt	pelvis_list	pelvis_rotation	pelvis_tx	pelvis_ty	pelvis_tz	hip_flexion_r	hip_adduction_r	hip_rotation_r	knee_angle_r	knee_adduction_r	knee_angle_r_beta	ankle_angle_r	subtalar_angle_r	mtp_angle_r	hip_flexion_l	hip_adduction_l	hip_rotation_l	knee_angle_l	knee_adduction_l	knee_angle_l_beta	ankle_angle_l	subtalar_angle_l	mtp_angle_l	lumbar_extension	lumbar_bending	lumbar_rotation	arm_flex_r	arm_add_r	arm_rot_r	elbow_flex_r	pro_sup_r	wrist_flex_r	wrist_dev_r	arm_flex_l	arm_add_l	arm_rot_l	elbow_flex_l	pro_sup_l	wrist_flex_l	wrist_dev_l
      1.77000000	     13.63714134	     -4.44051330	      3.03508277	     -0.31058373	      0.87956273	      0.16278166	      7.38711893	      2.61876723	    -23.48866531	     28.00965200	      0.05763399	      0.48886065	     14.31230893	     31.39889347	     -7.50951847	    -25.11426803	     -5.67009731	    -12.66703140	     40.64987790	     -9.31100795	      0.70947421	     10.90158563	     26.00859413	     -7.50951847	    -35.64736350	      7.97592698	      1.72676130	     -1.20616037	    -16.09670437	      0.14324321	     44.11397438	     90.00000001	      0.00000000	      0.00000000	     22.39457808	    -14.60073376	      8.71795774	     52.34197665	     90.00000001	      0.00000000	      0.00000000
      1.78000000	     13.66979550	     -4.76980400	      3.33798420	     -0.29768920	      0.88211560	      0.16400372	      5.85828018	      3.22072848	    -24.06863169	     26.93457230	      0.10844614	      0.47009697	     14.76055941	     32.19270231	     -7.50914648	    -23.26964150	     -6.40053692	    -13.25437189	     43.69572336	    -10.41694428	      0.76263424	     10.97293306	     26.21601639	     -7.50914648	    -35.71825268	      8.36332023	      1.82778432	     -0.97318165	    -16.16082356	      0.18488982	     44.35426611	     90.00000001	      0.00000000	      0.00000000	     21.78096412	    -14.53372933	      8.95492505	     52.07240492	     90.00000001	      0.00000000	      0.00000000
      1.79000000	     13.70944467	     -4.89394380	      3.68670173	     -0.28506611	      0.88465741	      0.16507342	      4.32624770	      3.59240792	    -24.85630217	     25.86403537	      0.10964052	      0.45141258	     15.19306618	     33.22109107	     -7.50874043	    -21.33254922	     -6.85651667	    -13.66678156	     46.48616847	    -11.54594573	      0.81133670	     11.35099329	     26.19213502	     -7.50874043	    -35.80426400	      8.54501977	      1.81568214	     -0.75138049	    -16.16238741	      0.18850209	     44.67881310	     90.00000001	      0.00000000	      0.00000000	     21.23124984	    -14.51382446	      9.21828629	     51.72202591	     90.00000001	      0.00000000	      0.00000000
      1.80000000	     13.74247944	     -4.87230478	      4.03968719	     -0.27279995	      0.88719536	      0.16596065	      2.80638184	      3.83617268	    -25.34032913	     24.74992765	      0.20623698	      0.43196773	     15.73416402	     33.91522177	     -7.50849296	    -19.29225301	     -7.10601953	    -13.93049103	     49.01806150	    -12.56539913	      0.85552657	     11.89735064	     25.76769268	     -7.50849296	    -35.92862816	      8.59612577	      1.75684398	     -0.48829740	    -16.18069971	      0.19831844	     45.06884805	     90.00000001	      0.00000000	      0.00000000	     20.73038423	    -14.47044412	      9.45290828	     51.30910911	     90.00000001	      0.00000000	      0.00000000
      1.81000000	     13.78477940	     -4.70905253	      4.45918724	     -0.26065757	      0.88965681	      0.16670497	      1.30183757	      3.90821056	    -25.98246380	     23.70734849	      0.30634240	      0.41377129	     16.12424456	     34.68950344	     -7.50823963	    -17.20142156	     -7.14379411	    -14.13470929	     51.21306814	    -13.59127230	      0.89383666	     12.70064180	     25.31887347	     -7.50823963	    -36.05837522	      8.52011361	      1.60871075	     -0.26617639	    -16.15653377	      0.19993745	     45.52716663	     90.00000001	      0.00000000	      0.00000000	     20.27630860	    -14.47418992	      9.73028080	     50.83176822	     90.00000001	      0.00000000	      0.00000000
